
<svg width="120" height="120" viewBox="0 0 120 120" fill="none" xmlns="http://www.w3.org/2000/svg">
  <circle cx="60" cy="60" r="54" fill="#3A9849" fill-opacity="0.1" stroke="#3A9849" stroke-width="2"/>
  <path d="M60 28C46.6 28 34.6 35.2 28 46.2C28.8 46.4 29.6 46.8 30.2 47.4C30.8 48 31.2 48.8 31.4 49.6C31.6 50.4 31.6 51.2 31.4 52C31.2 52.8 30.8 53.6 30.2 54.2C29.6 54.8 28.8 55.2 28 55.4V64.6C28.8 64.8 29.6 65.2 30.2 65.8C30.8 66.4 31.2 67.2 31.4 68C31.6 68.8 31.6 69.6 31.4 70.4C31.2 71.2 30.8 72 30.2 72.6C29.6 73.2 28.8 73.6 28 73.8C34.6 84.8 46.6 92 60 92C73.4 92 85.4 84.8 92 73.8C91.2 73.6 90.4 73.2 89.8 72.6C89.2 72 88.8 71.2 88.6 70.4C88.4 69.6 88.4 68.8 88.6 68C88.8 67.2 89.2 66.4 89.8 65.8C90.4 65.2 91.2 64.8 92 64.6V55.4C91.2 55.2 90.4 54.8 89.8 54.2C89.2 53.6 88.8 52.8 88.6 52C88.4 51.2 88.4 50.4 88.6 49.6C88.8 48.8 89.2 48 89.8 47.4C90.4 46.8 91.2 46.4 92 46.2C85.4 35.2 73.4 28 60 28Z" fill="#3A9849"/>
  <path d="M77 78C77 78 71 84 60 84C49 84 43 78 43 78" stroke="white" stroke-width="2" stroke-linecap="round"/>
  <path d="M43 42C43 42 49 36 60 36C71 36 77 42 77 42" stroke="white" stroke-width="2" stroke-linecap="round"/>
  <path d="M60 84C60 84 44 76 44 60C44 44 60 36 60 36C60 36 76 44 76 60C76 76 60 84 60 84Z" stroke="white" stroke-width="2"/>
  <circle cx="60" cy="52" r="8" fill="#2C7E3A"/>
  <path d="M52 68C52 68 56 64 60 64C64 64 68 68 68 68" stroke="white" stroke-width="2" stroke-linecap="round"/>
</svg>
